<svg width="20" height="20" viewBox="0 0 20 20" fill="none" xmlns="http://www.w3.org/2000/svg">
<path d="M13.6492 6.21821H15.2271L12.888 2.32797C12.6995 2.01274 12.2819 1.90527 11.9567 2.09154C11.6315 2.27424 11.5207 2.67902 11.7128 2.99425L13.6492 6.21821Z" fill="#242424"/>
<path d="M8.29454 2.99425C8.483 2.67902 8.37584 2.27423 8.05065 2.09154C7.72546 1.90885 7.30789 2.01273 7.11942 2.32796L4.78027 6.22179H6.35818L8.29454 2.99425Z" fill="#242424"/>
<path d="M17.8397 7.41107H2.15664C1.51735 7.41107 1 7.91258 1 8.53229V9.77531C1 10.395 1.51735 10.8965 2.15664 10.8965H2.51878L3.63478 16.7606C3.7752 17.4519 4.42558 18 5.10183 18H8.4572C8.75282 18 9.13714 18 9.52884 18H10.2383C10.6301 18 11.0144 18 11.31 18H14.6654C15.3416 18 15.992 17.4519 16.1324 16.7606L17.2558 10.893H17.8434C18.4827 10.893 19 10.3914 19 9.77173V8.52871C18.9963 7.91258 18.479 7.41107 17.8397 7.41107ZM7.38555 15.8005C7.38555 16.1623 7.08253 16.4346 6.73147 16.4346C6.35824 16.4346 6.0774 16.1408 6.0774 15.8005V12.2542C6.0774 11.8924 6.38041 11.6201 6.73147 11.6201C7.1047 11.6201 7.38555 11.9139 7.38555 12.2542V15.8005ZM9.4845 15.8005C9.4845 16.1623 9.18148 16.4346 8.83042 16.4346C8.4572 16.4346 8.17635 16.1408 8.17635 15.8005V12.2542C8.17635 11.8924 8.47937 11.6201 8.83042 11.6201C9.18148 11.6201 9.4845 11.9139 9.4845 12.2542V15.8005ZM11.5945 15.8005C11.5945 16.1408 11.3137 16.4346 10.9405 16.4346C10.5894 16.4346 10.2864 16.1623 10.2864 15.8005V12.2542C10.2864 11.9139 10.5894 11.6201 10.9405 11.6201C11.2915 11.6201 11.5945 11.8924 11.5945 12.2542V15.8005ZM13.6935 15.8005C13.6935 16.1408 13.4126 16.4346 13.0394 16.4346C12.6884 16.4346 12.3853 16.1623 12.3853 15.8005V12.2542C12.3853 11.9139 12.6662 11.6201 13.0394 11.6201C13.3905 11.6201 13.6935 11.8924 13.6935 12.2542V15.8005Z" fill="#242424"/>
</svg>
